<svg width="300" height="300" viewBox="0 0 300 300" fill="none" xmlns="http://www.w3.org/2000/svg">
<circle cx="150" cy="150" r="150" fill="#051C3B"/>
<rect x="121.789" y="98.5469" width="51.5017" height="102.278" rx="25.7508" fill="white"/>
<path d="M94.9506 149.328C80.9291 149.328 69.5625 137.961 69.5625 123.94C69.5625 109.919 80.9292 98.5518 94.9506 98.5518L173.291 98.5518L173.291 149.328L94.9506 149.328Z" fill="white"/>
<path d="M205.206 98.5469C219.227 98.5469 230.594 109.914 230.594 123.935C230.594 137.956 219.227 149.323 205.206 149.323L181.994 149.323L181.994 98.5469L205.206 98.5469Z" fill="white"/>
<path d="M200.328 103.487C203.357 101.77 207.067 101.77 210.096 103.487L215.309 106.442L220.474 109.479C223.477 111.244 225.331 114.456 225.359 117.939L225.406 123.931L225.359 129.922C225.331 133.405 223.477 136.617 220.474 138.383L215.309 141.42L210.096 144.374C207.067 146.092 203.357 146.092 200.328 144.374L195.115 141.42L189.95 138.383C186.947 136.617 185.093 133.405 185.065 129.922L185.018 123.931L185.065 117.939C185.093 114.456 186.947 111.244 189.95 109.479L195.115 106.442L200.328 103.487Z" fill="#051C3B"/>
</svg>
