<svg width="16" height="16" viewBox="0 0 16 16" fill="none" xmlns="http://www.w3.org/2000/svg">
<rect width="16" height="16" rx="5" fill="#051C3B"/>
<rect x="6.17188" y="4.63281" width="3.35046" height="6.65373" rx="1.67523" fill="white"/>
<path d="M4.42507 7.9375C3.5129 7.9375 2.77344 7.19804 2.77344 6.28586C2.77344 5.37369 3.5129 4.63423 4.42507 4.63423L9.52155 4.63423L9.52155 7.9375L4.42507 7.9375Z" fill="white"/>
<path d="M11.5984 4.63281C12.5105 4.63281 13.25 5.37228 13.25 6.28445C13.25 7.19662 12.5105 7.93608 11.5984 7.93608L10.0883 7.93608L10.0883 4.63281L11.5984 4.63281Z" fill="white"/>
<path d="M10.9391 5.14576C11.3466 4.9148 11.8454 4.9148 12.2529 5.14576C12.6566 5.38316 12.906 5.81515 12.9098 6.2835C12.906 6.75186 12.6566 7.18385 12.2529 7.42125C11.8454 7.65221 11.3466 7.65221 10.9391 7.42125C10.5354 7.18385 10.286 6.75186 10.2822 6.2835C10.286 5.81515 10.5354 5.38316 10.9391 5.14576Z" fill="#051C3B"/>
</svg>
