<svg width="32" height="32" viewBox="0 0 32 32" fill="none" xmlns="http://www.w3.org/2000/svg">
<rect width="32" height="32" rx="8" fill="#051C3B"/>
<rect x="12.3438" y="9.26562" width="6.70092" height="13.3075" rx="3.35046" fill="white"/>
<path d="M8.85015 15.875C7.0258 15.875 5.54687 14.3961 5.54687 12.5717C5.54687 10.7474 7.0258 9.26846 8.85014 9.26846L19.0431 9.26846L19.0431 15.875L8.85015 15.875Z" fill="white"/>
<path d="M23.1967 9.26562C25.0211 9.26562 26.5 10.7446 26.5 12.5689C26.5 14.3932 25.0211 15.8722 23.1967 15.8722L20.1766 15.8722L20.1766 9.26562L23.1967 9.26562Z" fill="white"/>
<path d="M21.8783 10.2915C22.6932 9.82961 23.6908 9.82961 24.5058 10.2915C25.3133 10.7663 25.8121 11.6303 25.8195 12.567C25.8121 13.5037 25.3133 14.3677 24.5058 14.8425C23.6908 15.3044 22.6932 15.3044 21.8783 14.8425C21.0708 14.3677 20.5719 13.5037 20.5645 12.567C20.5719 11.6303 21.0708 10.7663 21.8783 10.2915Z" fill="#051C3B"/>
</svg>
