<svg width="180" height="180" viewBox="0 0 180 180" fill="none" xmlns="http://www.w3.org/2000/svg">
<rect width="180" height="180" rx="53.2174" fill="#051C3B"/>
<rect x="69.4141" y="52.1406" width="37.6927" height="74.8545" rx="18.8463" fill="white"/>
<path d="M49.7684 89.3047C39.5065 89.3047 31.1875 80.9857 31.1875 70.7238C31.1875 60.4618 39.5064 52.1429 49.7684 52.1429L107.104 52.1429L107.104 89.3047L49.7684 89.3047Z" fill="white"/>
<path d="M130.466 52.1406C140.728 52.1406 149.047 60.4596 149.047 70.7215C149.047 80.9835 140.728 89.3024 130.466 89.3024L113.478 89.3024L113.478 52.1406L130.466 52.1406Z" fill="white"/>
<path d="M127.874 55.1948C129.481 54.284 131.448 54.284 133.055 55.1948L137.855 57.9152L142.61 60.7114C144.203 61.6476 145.186 63.3512 145.201 65.1982L145.245 70.7148L145.201 76.2314C145.186 78.0784 144.203 79.782 142.61 80.7182L137.855 83.5145L133.055 86.2348C131.448 87.1456 129.481 87.1456 127.874 86.2348L123.075 83.5145L118.319 80.7182C116.727 79.782 115.744 78.0784 115.729 76.2314L115.685 70.7148L115.729 65.1982C115.744 63.3512 116.727 61.6476 118.319 60.7114L123.075 57.9152L127.874 55.1948Z" fill="#051C3B"/>
</svg>
