<svg width="20" height="20" viewBox="0 0 20 20" fill="none" xmlns="http://www.w3.org/2000/svg">
<path d="M16.6693 8.33073C16.6693 12.4916 12.0534 16.8249 10.5034 18.1632C10.359 18.2718 10.1833 18.3305 10.0026 18.3305C9.82194 18.3305 9.64617 18.2718 9.50177 18.1632C7.95177 16.8249 3.33594 12.4916 3.33594 8.33073C3.33594 6.56262 4.03832 4.86693 5.28856 3.61668C6.5388 2.36644 8.23449 1.66406 10.0026 1.66406C11.7707 1.66406 13.4664 2.36644 14.7166 3.61668C15.9669 4.86693 16.6693 6.56262 16.6693 8.33073Z" stroke="#051C3B" stroke-width="1.66667" stroke-linecap="round" stroke-linejoin="round"/>
<path d="M10 10.8359C11.3807 10.8359 12.5 9.71665 12.5 8.33594C12.5 6.95523 11.3807 5.83594 10 5.83594C8.61929 5.83594 7.5 6.95523 7.5 8.33594C7.5 9.71665 8.61929 10.8359 10 10.8359Z" stroke="#051C3B" stroke-width="1.66667" stroke-linecap="round" stroke-linejoin="round"/>
</svg>
