<svg width="267" height="55" viewBox="0 0 267 55" fill="none" xmlns="http://www.w3.org/2000/svg">
<path d="M77.833 13.724V18.9948H70.1024V40H64.4021V18.9948H56.6716V13.724H77.833ZM91.4703 40H85.8481V13.724H95.9603C101.895 13.724 106.463 16.496 106.463 22.0792C106.463 25.6712 104.355 28.4432 100.997 29.3412C102.676 30.2783 103.652 32.0742 105.018 34.8073L107.556 40H101.387L99.0447 35.3148C97.8343 32.8942 96.7021 31.6057 93.7348 31.6057H91.5094L91.4703 40ZM96.0384 18.9948H91.5484L91.5094 26.5301H95.9603C98.6543 26.5301 100.606 25.1246 100.606 22.6648C100.606 20.088 98.6152 18.9948 96.0384 18.9948ZM127.523 40.4295C119.675 40.4295 116.083 35.9005 116.083 28.3261V13.724H121.784V28.209C121.784 32.777 123.658 35.0025 127.523 35.0025C131.388 35.0025 133.262 32.777 133.262 28.209V13.724H138.963V28.3261C138.963 35.9005 135.332 40.4295 127.523 40.4295ZM154.948 39.961L149.247 40V13.724H158.501C165.958 13.724 170.526 17.1988 170.526 23.2895C170.526 29.6145 166.036 33.0503 158.813 33.0503H154.948V39.961ZM158.657 18.9948H154.948V27.7795H158.657C162.405 27.7795 164.669 26.3349 164.669 23.2895C164.669 20.4003 162.405 18.9948 158.657 18.9948ZM176.503 40L183.453 17.4331C184.351 14.5829 186.693 13.2164 189.153 13.2164C191.652 13.2164 193.994 14.5829 194.892 17.4331L201.842 40H196.024L194.502 34.612L183.843 34.6511L182.32 40H176.503ZM188.333 19.1119L185.327 29.5364H193.018L190.051 19.1119C189.895 18.5653 189.66 18.3311 189.192 18.3311C188.762 18.3311 188.489 18.5653 188.333 19.1119ZM226.571 13.724V18.9948H218.84V40H213.14V18.9948H205.409V13.724H226.571ZM240.286 40H234.586V13.724H240.286V24.3047H252.272V13.724H257.972V40H252.272V29.5364H240.286V40Z" fill="white"/>
<rect y="6.75" width="40.875" height="40.875" rx="10.1238" fill="#051C3B"/>
<rect x="14.8828" y="17.2656" width="9.99462" height="19.8485" rx="4.99731" fill="white"/>
<path d="M9.67693 27.125C6.95586 27.125 4.75 24.9191 4.75 22.1981C4.75 19.477 6.95586 17.2712 9.67692 17.2712L24.88 17.2712L24.88 27.125L9.67693 27.125Z" fill="white"/>
<path d="M31.0752 17.2656C33.7961 17.2657 36.0019 19.4714 36.002 22.1924C36.002 24.9134 33.7962 27.1191 31.0752 27.1191H26.5703V17.2656H31.0752ZM31.7617 18.0791C31.3356 17.8376 30.8138 17.8376 30.3877 18.0791L29.1152 18.7998L27.8545 19.542C27.4324 19.7903 27.1719 20.2418 27.168 20.7314L27.1562 22.1943L27.168 23.6572C27.172 24.1468 27.4324 24.5985 27.8545 24.8467L29.1152 25.5879L30.3877 26.3096C30.8137 26.551 31.3357 26.551 31.7617 26.3096L33.0342 25.5879L34.2959 24.8467C34.7178 24.5985 34.9784 24.1467 34.9824 23.6572L34.9941 22.1943L34.9824 20.7314C34.9785 20.2419 34.7178 19.7903 34.2959 19.542L33.0342 18.7998L31.7617 18.0791Z" fill="white"/>
</svg>
