<svg width="271" height="55" viewBox="0 0 271 55" fill="none" xmlns="http://www.w3.org/2000/svg">
<path d="M81.833 13.724V18.9948H74.1024V40H68.4021V18.9948H60.6716V13.724H81.833ZM95.4703 40H89.8481V13.724H99.9603C105.895 13.724 110.463 16.496 110.463 22.0792C110.463 25.6712 108.355 28.4432 104.997 29.3412C106.676 30.2783 107.652 32.0742 109.018 34.8073L111.556 40H105.387L103.045 35.3148C101.834 32.8942 100.702 31.6057 97.7348 31.6057H95.5094L95.4703 40ZM100.038 18.9948H95.5484L95.5094 26.5301H99.9603C102.654 26.5301 104.606 25.1246 104.606 22.6648C104.606 20.088 102.615 18.9948 100.038 18.9948ZM131.523 40.4295C123.675 40.4295 120.083 35.9005 120.083 28.3261V13.724H125.784V28.209C125.784 32.777 127.658 35.0025 131.523 35.0025C135.388 35.0025 137.262 32.777 137.262 28.209V13.724H142.963V28.3261C142.963 35.9005 139.332 40.4295 131.523 40.4295ZM158.948 39.961L153.247 40V13.724H162.501C169.958 13.724 174.526 17.1988 174.526 23.2895C174.526 29.6145 170.036 33.0503 162.813 33.0503H158.948V39.961ZM162.657 18.9948H158.948V27.7795H162.657C166.405 27.7795 168.669 26.3349 168.669 23.2895C168.669 20.4003 166.405 18.9948 162.657 18.9948ZM180.503 40L187.453 17.4331C188.351 14.5829 190.693 13.2164 193.153 13.2164C195.652 13.2164 197.994 14.5829 198.892 17.4331L205.842 40H200.024L198.502 34.612L187.843 34.6511L186.32 40H180.503ZM192.333 19.1119L189.327 29.5364H197.018L194.051 19.1119C193.895 18.5653 193.66 18.3311 193.192 18.3311C192.762 18.3311 192.489 18.5653 192.333 19.1119ZM230.571 13.724V18.9948H222.84V40H217.14V18.9948H209.409V13.724H230.571ZM244.286 40H238.586V13.724H244.286V24.3047H256.272V13.724H261.972V40H256.272V29.5364H244.286V40Z" fill="white"/>
<rect y="7" width="50" height="41" rx="10.1238" fill="#051C3B"/>
<rect x="18.25" y="15" width="12.0851" height="24" rx="6.04255" fill="white"/>
<path d="M11.9574 26.9219C8.66723 26.9219 6 24.2546 6 20.9644C6 17.6742 8.66724 15.007 11.9574 15.007L30.3404 15.007L30.3404 26.9219L11.9574 26.9219Z" fill="white"/>
<path d="M37.8379 15C41.128 15 43.7947 17.667 43.7949 20.957C43.7949 24.2472 41.1281 26.915 37.8379 26.915H32.3906V15H37.8379ZM38.7344 16.0186C38.179 15.7038 37.4988 15.7038 36.9434 16.0186L35.4697 16.8545L34.0088 17.7129C33.4585 18.0364 33.1184 18.6254 33.1133 19.2637L33.0996 20.958L33.1133 22.6523C33.1184 23.2907 33.4585 23.8795 34.0088 24.2031L35.4697 25.0625L36.9434 25.8975C37.4988 26.2123 38.179 26.2123 38.7344 25.8975L40.208 25.0625L41.6689 24.2031C42.2191 23.8795 42.5594 23.2906 42.5645 22.6523L42.5771 20.958L42.5645 19.2637C42.5593 18.6254 42.2191 18.0365 41.6689 17.7129L40.208 16.8545L38.7344 16.0186Z" fill="white"/>
</svg>
