<svg width="689" height="146" viewBox="0 0 689 146" fill="none" xmlns="http://www.w3.org/2000/svg">
<path d="M203.888 36.9306V50.9861H183.273V107H168.072V50.9861H147.458V36.9306H203.888ZM240.254 107H225.262V36.9306H252.227C268.053 36.9306 280.234 44.3228 280.234 59.2112C280.234 68.7898 274.612 76.182 265.658 78.5766C270.135 81.0754 272.738 85.8647 276.382 93.1527L283.15 107H266.699L260.452 94.5062C257.225 88.0511 254.206 84.6153 246.293 84.6153H240.358L240.254 107ZM252.436 50.9861H240.462L240.358 71.0803H252.227C259.411 71.0803 264.617 67.3322 264.617 60.7729C264.617 53.9013 259.307 50.9861 252.436 50.9861ZM336.395 108.145C315.468 108.145 305.889 96.0679 305.889 75.8696V36.9306H321.09V75.5573C321.09 87.7387 326.087 93.6733 336.395 93.6733C346.702 93.6733 351.7 87.7387 351.7 75.5573V36.9306H366.9V75.8696C366.9 96.0679 357.218 108.145 336.395 108.145ZM409.527 106.896L394.326 107V36.9306H419.002C438.888 36.9306 451.069 46.1968 451.069 62.4388C451.069 79.3054 439.096 88.4675 419.835 88.4675H409.527V106.896ZM419.418 50.9861H409.527V74.412H419.418C429.413 74.412 435.452 70.5597 435.452 62.4388C435.452 54.7343 429.413 50.9861 419.418 50.9861ZM467.008 107L485.54 46.8215C487.935 39.2211 494.182 35.5771 500.741 35.5771C507.404 35.5771 513.651 39.2211 516.046 46.8215L534.578 107H519.065L515.005 92.6321L486.581 92.7362L482.521 107H467.008ZM498.555 51.2985L490.538 79.0972H511.048L503.136 51.2985C502.719 49.8409 502.094 49.2162 500.845 49.2162C499.7 49.2162 498.971 49.8409 498.555 51.2985ZM600.521 36.9306V50.9861H579.907V107H564.706V50.9861H544.091V36.9306H600.521ZM637.096 107H621.895V36.9306H637.096V65.1458H669.059V36.9306H684.26V107H669.059V79.0972H637.096V107Z" fill="#051C3B"/>
<rect y="18" width="106" height="109" rx="26.9969" fill="#051C3B"/>
<rect x="40.0312" y="48.7109" width="23.2952" height="47.582" rx="11.6476" fill="white"/>
<path d="M28.2174 72.3359C21.6943 72.3359 16.4062 67.0479 16.4062 60.5248C16.4062 54.0017 21.6943 48.7136 28.2174 48.7136L63.3247 48.7136L63.3247 72.3359L28.2174 72.3359Z" fill="white"/>
<path d="M77.4365 48.7109C83.9596 48.7109 89.248 53.9993 89.248 60.5225C89.2478 67.0454 83.9595 72.333 77.4365 72.333H67.2656V48.7109H77.4365ZM79.4463 50.6992C78.407 50.0935 77.1222 50.0934 76.083 50.6992L73.1982 52.3809L70.2695 54.1523C69.2773 54.7524 68.6672 55.8248 68.6582 56.9844L68.6309 60.5176L68.6582 64.0508C68.6672 65.2104 69.2773 66.2827 70.2695 66.8828L73.1982 68.6533L76.083 70.3359C77.1222 70.9418 78.407 70.9416 79.4463 70.3359L82.332 68.6533L85.2607 66.8828C86.253 66.2827 86.8631 65.2104 86.8721 64.0508L86.8994 60.5176L86.8721 56.9844C86.8631 55.8248 86.253 54.7524 85.2607 54.1523L82.332 52.3809L79.4463 50.6992Z" fill="white"/>
</svg>
