<svg width="744" height="146" viewBox="0 0 744 146" fill="none" xmlns="http://www.w3.org/2000/svg">
<path d="M242.677 36.9306V50.9861H222.062V107H206.861V50.9861H186.247V36.9306H242.677ZM279.043 107H264.051V36.9306H291.016C306.842 36.9306 319.023 44.3228 319.023 59.2112C319.023 68.7898 313.401 76.182 304.447 78.5766C308.924 81.0754 311.527 85.8647 315.171 93.1527L321.939 107H305.488L299.242 94.5062C296.014 88.0511 292.995 84.6153 285.082 84.6153H279.147L279.043 107ZM291.225 50.9861H279.251L279.147 71.0803H291.016C298.2 71.0803 303.406 67.3322 303.406 60.7729C303.406 53.9013 298.096 50.9861 291.225 50.9861ZM375.184 108.145C354.257 108.145 344.678 96.0679 344.678 75.8696V36.9306H359.879V75.5573C359.879 87.7387 364.876 93.6733 375.184 93.6733C385.491 93.6733 390.489 87.7387 390.489 75.5573V36.9306H405.689V75.8696C405.689 96.0679 396.007 108.145 375.184 108.145ZM448.316 106.896L433.116 107V36.9306H457.791C477.677 36.9306 489.858 46.1968 489.858 62.4388C489.858 79.3054 477.885 88.4675 458.624 88.4675H448.316V106.896ZM458.207 50.9861H448.316V74.412H458.207C468.202 74.412 474.241 70.5597 474.241 62.4388C474.241 54.7343 468.202 50.9861 458.207 50.9861ZM505.797 107L524.329 46.8215C526.724 39.2211 532.971 35.5771 539.53 35.5771C546.193 35.5771 552.44 39.2211 554.835 46.8215L573.367 107H557.854L553.794 92.6321L525.37 92.7362L521.31 107H505.797ZM537.344 51.2985L529.327 79.0972H549.837L541.925 51.2985C541.508 49.8409 540.884 49.2162 539.634 49.2162C538.489 49.2162 537.76 49.8409 537.344 51.2985ZM639.31 36.9306V50.9861H618.696V107H603.495V50.9861H582.88V36.9306H639.31ZM675.885 107H660.684V36.9306H675.885V65.1458H707.848V36.9306H723.049V107H707.848V79.0972H675.885V107Z" fill="white"/>
<rect x="40.9297" y="34" width="39.7762" height="78.9922" rx="19.8881" fill="white"/>
<path d="M20.2017 73.2187C9.37253 73.2187 0.59375 64.44 0.593749 53.6108C0.593749 42.7816 9.37255 34.0028 20.2017 34.0028L80.7064 34.0028L80.7064 73.2187L20.2017 73.2187Z" fill="white"/>
<path d="M105.356 34.0078C116.186 34.0078 124.965 42.7861 124.965 53.6152C124.965 64.4444 116.186 73.2236 105.356 73.2236H87.4297V34.0078H105.356ZM108.09 37.2334C106.394 36.2723 104.319 36.2723 102.623 37.2334L97.5576 40.1035L92.5391 43.0547C90.8592 44.0426 89.8212 45.8403 89.8057 47.7891L89.7598 53.6113L89.8057 59.4326C89.8212 61.3814 90.8592 63.179 92.5391 64.167L97.5576 67.1182L102.623 69.9893C104.319 70.9501 106.394 70.9501 108.09 69.9893L113.155 67.1182L118.173 64.167C119.853 63.1791 120.892 61.3816 120.907 59.4326L120.953 53.6113L120.907 47.7891C120.892 45.8401 119.853 44.0426 118.173 43.0547L113.155 40.1035L108.09 37.2334Z" fill="white"/>
</svg>
