<svg width="20" height="20" viewBox="0 0 20 20" fill="none" xmlns="http://www.w3.org/2000/svg">
<path d="M2.5 9.16406H5C5.44203 9.16406 5.86595 9.33966 6.17851 9.65222C6.49107 9.96478 6.66667 10.3887 6.66667 10.8307V13.3307C6.66667 13.7728 6.49107 14.1967 6.17851 14.5092C5.86595 14.8218 5.44203 14.9974 5 14.9974H4.16667C3.72464 14.9974 3.30072 14.8218 2.98816 14.5092C2.67559 14.1967 2.5 13.7728 2.5 13.3307V9.16406ZM2.5 9.16406C2.5 8.17915 2.69399 7.20388 3.0709 6.29394C3.44781 5.38399 4.00026 4.5572 4.6967 3.86076C5.39314 3.16432 6.21993 2.61188 7.12987 2.23497C8.03982 1.85806 9.01509 1.66406 10 1.66406C10.9849 1.66406 11.9602 1.85806 12.8701 2.23497C13.7801 2.61188 14.6069 3.16432 15.3033 3.86076C15.9997 4.5572 16.5522 5.38399 16.9291 6.29394C17.306 7.20388 17.5 8.17915 17.5 9.16406M17.5 9.16406V13.3307C17.5 13.7728 17.3244 14.1967 17.0118 14.5092C16.6993 14.8218 16.2754 14.9974 15.8333 14.9974H15C14.558 14.9974 14.134 14.8218 13.8215 14.5092C13.5089 14.1967 13.3333 13.7728 13.3333 13.3307V10.8307C13.3333 10.3887 13.5089 9.96478 13.8215 9.65222C14.134 9.33966 14.558 9.16406 15 9.16406H17.5Z" stroke="#051C3B" stroke-width="1.66667" stroke-linecap="round" stroke-linejoin="round"/>
<path d="M17.5 13.3359V15.0026C17.5 15.8867 17.1488 16.7345 16.5237 17.3596C15.8986 17.9847 15.0507 18.3359 14.1667 18.3359H10" stroke="#051C3B" stroke-width="1.66667" stroke-linecap="round" stroke-linejoin="round"/>
</svg>
