<svg width="20" height="20" viewBox="0 0 20 20" fill="none" xmlns="http://www.w3.org/2000/svg">
<path d="M1.66406 7.91711C1.66408 6.98977 1.94539 6.08426 2.47084 5.32016C2.99629 4.55606 3.74116 3.96932 4.60707 3.63744C5.47298 3.30556 6.41919 3.24414 7.32074 3.46131C8.22229 3.67848 9.03675 4.16401 9.65656 4.85377C9.70022 4.90045 9.753 4.93767 9.81163 4.96311C9.87026 4.98855 9.93348 5.00168 9.9974 5.00168C10.0613 5.00168 10.1245 4.98855 10.1832 4.96311C10.2418 4.93767 10.2946 4.90045 10.3382 4.85377C10.9561 4.15952 11.7707 3.66991 12.6738 3.45011C13.5768 3.2303 14.5253 3.29073 15.3931 3.62334C16.2609 3.95596 17.0069 4.54498 17.5317 5.31203C18.0564 6.07907 18.3352 6.98774 18.3307 7.91711C18.3307 9.82544 17.0807 11.2504 15.8307 12.5004L11.2541 16.9279C11.0988 17.1063 10.9073 17.2495 10.6924 17.3482C10.4775 17.4468 10.2441 17.4986 10.0076 17.5001C9.77118 17.5016 9.5371 17.4528 9.32097 17.3569C9.10483 17.261 8.91159 17.1201 8.75406 16.9438L4.16406 12.5004C2.91406 11.2504 1.66406 9.83377 1.66406 7.91711Z" stroke="#051C3B" stroke-width="1.66667" stroke-linecap="round" stroke-linejoin="round"/>
<path d="M2.67969 10.8307H7.91302L8.32969 9.9974L9.99635 13.7474L11.663 7.91406L12.913 10.8307H17.3047" stroke="#051C3B" stroke-width="1.66667" stroke-linecap="round" stroke-linejoin="round"/>
</svg>
