<svg width="20" height="20" viewBox="0 0 20 20" fill="none" xmlns="http://www.w3.org/2000/svg">
<path d="M13.3307 16.6641V3.33073C13.3307 2.8887 13.1551 2.46478 12.8426 2.15222C12.53 1.83966 12.1061 1.66406 11.6641 1.66406H8.33073C7.8887 1.66406 7.46478 1.83966 7.15222 2.15222C6.83966 2.46478 6.66406 2.8887 6.66406 3.33073V16.6641" stroke="white" stroke-width="1.66667" stroke-linecap="round" stroke-linejoin="round"/>
<path d="M16.6641 5H3.33073C2.41025 5 1.66406 5.74619 1.66406 6.66667V15C1.66406 15.9205 2.41025 16.6667 3.33073 16.6667H16.6641C17.5845 16.6667 18.3307 15.9205 18.3307 15V6.66667C18.3307 5.74619 17.5845 5 16.6641 5Z" stroke="white" stroke-width="1.66667" stroke-linecap="round" stroke-linejoin="round"/>
</svg>
