<svg width="253" height="50" viewBox="0 0 253 50" fill="none" xmlns="http://www.w3.org/2000/svg">
<path d="M82.3855 13.1569V17.9397H75.3707V37H70.1982V17.9397H63.1835V13.1569H82.3855ZM94.7601 37H89.6585V13.1569H98.8343C104.219 13.1569 108.364 15.6723 108.364 20.7385C108.364 23.9979 106.451 26.5133 103.405 27.3281C104.928 28.1784 105.814 29.8081 107.054 32.2881L109.356 37H103.759L101.633 32.7486C100.535 30.5521 99.5075 29.383 96.8149 29.383H94.7955L94.7601 37ZM98.9052 17.9397H94.831L94.7955 24.7773H98.8343C101.279 24.7773 103.05 23.5019 103.05 21.27C103.05 18.9317 101.243 17.9397 98.9052 17.9397ZM127.475 37.3897C120.354 37.3897 117.094 33.2801 117.094 26.407V13.1569H122.267V26.3007C122.267 30.4458 123.967 32.4652 127.475 32.4652C130.982 32.4652 132.682 30.4458 132.682 26.3007V13.1569H137.855V26.407C137.855 33.2801 134.56 37.3897 127.475 37.3897ZM152.36 36.9646L147.188 37V13.1569H155.584C162.351 13.1569 166.496 16.31 166.496 21.8368C166.496 27.5761 162.422 30.6938 155.867 30.6938H152.36V36.9646ZM155.726 17.9397H152.36V25.911H155.726C159.127 25.911 161.182 24.6002 161.182 21.8368C161.182 19.2151 159.127 17.9397 155.726 17.9397ZM171.919 37L178.225 16.5226C179.04 13.9364 181.166 12.6964 183.398 12.6964C185.665 12.6964 187.791 13.9364 188.606 16.5226L194.912 37H189.633L188.252 32.1109L178.58 32.1464L177.198 37H171.919ZM182.654 18.046L179.926 27.5053H186.905L184.213 18.046C184.071 17.55 183.859 17.3374 183.433 17.3374C183.044 17.3374 182.796 17.55 182.654 18.046ZM217.351 13.1569V17.9397H210.336V37H205.164V17.9397H198.149V13.1569H217.351ZM229.797 37H224.624V13.1569H229.797V22.7579H240.673V13.1569H245.845V37H240.673V27.5053H229.797V37Z" fill="#051C3B"/>
<rect x="13.7266" y="11.5703" width="13.535" height="26.8793" rx="6.76748" fill="#051C3B"/>
<path d="M6.67217 24.9141C2.98723 24.9141 -1.30576e-07 21.9268 -2.9165e-07 18.2419C-4.52723e-07 14.557 2.98723 11.5697 6.67216 11.5697L27.2606 11.5697L27.2606 24.9141L6.67217 24.9141Z" fill="#051C3B"/>
<path d="M35.6465 11.5703C39.3313 11.5703 42.3191 14.5574 42.3193 18.2422C42.3193 21.9271 39.3314 24.915 35.6465 24.915H29.5469V11.5703H35.6465ZM36.5781 12.6719C36.0012 12.345 35.2947 12.3449 34.7178 12.6719L32.9951 13.6484L31.2871 14.6523C30.7155 14.9885 30.3618 15.6006 30.3564 16.2637L30.3408 18.2451L30.3564 20.2256C30.3617 20.8888 30.7154 21.5007 31.2871 21.8369L32.9951 22.8408L34.7178 23.8184C35.2946 24.1453 36.0012 24.1451 36.5781 23.8184L38.3018 22.8408L40.0098 21.8369C40.5814 21.5007 40.9342 20.8888 40.9395 20.2256L40.9551 18.2451L40.9395 16.2637C40.9341 15.6006 40.5814 14.9885 40.0098 14.6523L38.3018 13.6484L36.5781 12.6719Z" fill="#051C3B"/>
</svg>
