<svg width="200" height="39" viewBox="0 0 200 39" fill="none" xmlns="http://www.w3.org/2000/svg">
<path d="M64.9533 10.2002V13.9713H59.4224V29H55.3439V13.9713H49.813V10.2002H64.9533ZM74.7105 29H70.688V10.2002H77.9229C82.169 10.2002 85.4373 12.1835 85.4373 16.1782C85.4373 18.7481 83.9288 20.7314 81.5265 21.3739C82.7276 22.0444 83.426 23.3293 84.4037 25.2847L86.2194 29H81.8058L80.1297 25.6479C79.2638 23.916 78.4537 22.9941 76.3307 22.9941H74.7384L74.7105 29ZM77.9788 13.9713H74.7664L74.7384 19.3627H77.9229C79.8504 19.3627 81.2471 18.357 81.2471 16.5972C81.2471 14.7535 79.8225 13.9713 77.9788 13.9713ZM100.505 29.3073C94.8904 29.3073 92.3205 26.0669 92.3205 20.6476V10.2002H96.3989V20.5638C96.3989 23.8322 97.7397 25.4244 100.505 25.4244C103.271 25.4244 104.612 23.8322 104.612 20.5638V10.2002H108.69V20.6476C108.69 26.0669 106.092 29.3073 100.505 29.3073ZM120.127 28.9721L116.048 29V10.2002H122.669C128.004 10.2002 131.273 12.6864 131.273 17.0441C131.273 21.5695 128.06 24.0277 122.892 24.0277H120.127V28.9721ZM122.781 13.9713H120.127V20.2566H122.781C125.462 20.2566 127.083 19.223 127.083 17.0441C127.083 14.977 125.462 13.9713 122.781 13.9713ZM135.549 29L140.521 12.854C141.164 10.8148 142.84 9.83707 144.6 9.83707C146.388 9.83707 148.064 10.8148 148.706 12.854L153.678 29H149.516L148.427 25.1451L140.801 25.173L139.711 29H135.549ZM144.013 14.0551L141.862 21.5136H147.365L145.242 14.0551C145.13 13.6641 144.963 13.4965 144.628 13.4965C144.32 13.4965 144.125 13.6641 144.013 14.0551ZM171.371 10.2002V13.9713H165.84V29H161.762V13.9713H156.231V10.2002H171.371ZM181.184 29H177.106V10.2002H181.184V17.7704H189.76V10.2002H193.838V29H189.76V21.5136H181.184V29Z" fill="white"/>
<rect x="10.8203" y="9.125" width="10.6721" height="21.1938" rx="5.33603" fill="white"/>
<path d="M5.26088 19.6484C2.35538 19.6484 -1.02957e-07 17.2931 -2.2996e-07 14.3876C-3.56963e-07 11.4821 2.35537 9.1267 5.26087 9.1267L21.4944 9.1267L21.4944 19.6484L5.26088 19.6484Z" fill="white"/>
<path d="M28.1074 9.13281C31.0128 9.133 33.3682 11.4891 33.3682 14.3945C33.3679 17.2997 31.0126 19.6551 28.1074 19.6553H23.2969V9.13281H28.1074ZM28.8438 10.0059C28.3889 9.74806 27.8318 9.7482 27.377 10.0059L26.0176 10.7764L24.6709 11.5684C24.2204 11.8334 23.9418 12.3152 23.9375 12.8379L23.9258 14.4004L23.9375 15.9619C23.9417 16.4848 24.2202 16.9673 24.6709 17.2324L26.0176 18.0244L27.377 18.7949C27.8318 19.0525 28.389 19.0527 28.8438 18.7949L30.2021 18.0244L31.5488 17.2324C31.9996 16.9673 32.2781 16.4848 32.2822 15.9619L32.2949 14.4004L32.2822 12.8379C32.2779 12.3152 31.9994 11.8334 31.5488 11.5684L30.2021 10.7764L28.8438 10.0059Z" fill="white"/>
</svg>
