<svg width="60" height="60" viewBox="0 0 60 60" fill="none" xmlns="http://www.w3.org/2000/svg">
<path d="M7.5 27.5H15C16.3261 27.5 17.5979 28.0268 18.5355 28.9645C19.4732 29.9021 20 31.1739 20 32.5V40C20 41.3261 19.4732 42.5979 18.5355 43.5355C17.5979 44.4732 16.3261 45 15 45H12.5C11.1739 45 9.90215 44.4732 8.96447 43.5355C8.02678 42.5979 7.5 41.3261 7.5 40V27.5ZM7.5 27.5C7.5 24.5453 8.08198 21.6194 9.21271 18.8896C10.3434 16.1598 12.0008 13.6794 14.0901 11.5901C16.1794 9.50078 18.6598 7.84344 21.3896 6.71271C24.1194 5.58198 27.0453 5 30 5C32.9547 5 35.8806 5.58198 38.6104 6.71271C41.3402 7.84344 43.8206 9.50078 45.9099 11.5901C47.9992 13.6794 49.6566 16.1598 50.7873 18.8896C51.918 21.6194 52.5 24.5453 52.5 27.5M52.5 27.5V40C52.5 41.3261 51.9732 42.5979 51.0355 43.5355C50.0979 44.4732 48.8261 45 47.5 45H45C43.6739 45 42.4021 44.4732 41.4645 43.5355C40.5268 42.5979 40 41.3261 40 40V32.5C40 31.1739 40.5268 29.9021 41.4645 28.9645C42.4021 28.0268 43.6739 27.5 45 27.5H52.5Z" stroke="#051C3B" stroke-width="5" stroke-linecap="round" stroke-linejoin="round"/>
<path d="M52.5 40V45C52.5 47.6522 51.4464 50.1957 49.5711 52.0711C47.6957 53.9464 45.1522 55 42.5 55H30" stroke="#051C3B" stroke-width="5" stroke-linecap="round" stroke-linejoin="round"/>
</svg>
