<svg width="60" height="60" viewBox="0 0 60 60" fill="none" xmlns="http://www.w3.org/2000/svg">
<path d="M5 23.7513C5.00005 20.9693 5.84398 18.2528 7.42033 15.9605C8.99668 13.6682 11.2313 11.908 13.829 10.9123C16.4268 9.91667 19.2654 9.73243 21.97 10.3839C24.6747 11.0354 27.1181 12.492 28.9775 14.5613C29.1085 14.7014 29.2668 14.813 29.4427 14.8893C29.6186 14.9656 29.8083 15.005 30 15.005C30.1917 15.005 30.3814 14.9656 30.5573 14.8893C30.7332 14.813 30.8915 14.7014 31.0225 14.5613C32.8761 12.4786 35.3201 11.0097 38.0291 10.3503C40.7381 9.69091 43.5837 9.87219 46.1872 10.87C48.7906 11.8679 51.0285 13.635 52.6028 15.9361C54.1771 18.2372 55.0133 20.9632 55 23.7513C55 29.4763 51.25 33.7513 47.5 37.5013L33.77 50.7838C33.3042 51.3188 32.7298 51.7486 32.0851 52.0446C31.4404 52.3405 30.7401 52.4959 30.0307 52.5004C29.3213 52.5049 28.6191 52.3584 27.9707 52.0706C27.3223 51.7829 26.7426 51.3604 26.27 50.8313L12.5 37.5013C8.75 33.7513 5 29.5013 5 23.7513Z" stroke="#051C3B" stroke-width="5" stroke-linecap="round" stroke-linejoin="round"/>
<path d="M8.04688 32.5H23.7469L24.9969 30L29.9969 41.25L34.9969 23.75L38.7469 32.5H51.9219" stroke="#051C3B" stroke-width="5" stroke-linecap="round" stroke-linejoin="round"/>
</svg>
